<svg xmlns="http://www.w3.org/2000/svg" viewBox="0 0 512 512"><!--!Font Awesome Free 6.7.2 by @fontawesome - https://fontawesome.com License - https://fontawesome.com/license/free Copyright 2025 Fonticons, Inc.--><path d="M502.6 214.6l-45.3-45.3c-6-6-14.1-9.4-22.6-9.4H384V80c0-26.5-21.5-48-48-48H176c-26.5 0-48 21.5-48 48v80H77.3c-8.5 0-16.6 3.4-22.6 9.4L9.4 214.6c-6 6-9.4 14.1-9.4 22.6V320h128v-16c0-8.8 7.2-16 16-16h32c8.8 0 16 7.2 16 16v16h128v-16c0-8.8 7.2-16 16-16h32c8.8 0 16 7.2 16 16v16h128v-82.8c0-8.5-3.4-16.6-9.4-22.6zM320 160H192V96h128v64zm64 208c0 8.8-7.2 16-16 16h-32c-8.8 0-16-7.2-16-16v-16H192v16c0 8.8-7.2 16-16 16h-32c-8.8 0-16-7.2-16-16v-16H0v96c0 17.7 14.3 32 32 32h448c17.7 0 32-14.3 32-32v-96H384v16z"/></svg>